<svg width="48" height="48" viewBox="0 0 48 48" fill="none" xmlns="http://www.w3.org/2000/svg">
<path d="M20.23 43.622C21.442 44.622 22.706 45.536 24 46.428C25.2968 45.5478 26.5546 44.6116 27.77 43.622C29.796 41.9584 31.7027 40.1547 33.476 38.224C37.564 33.754 42 27.274 42 20C42 17.6362 41.5344 15.2956 40.6298 13.1117C39.7252 10.9278 38.3994 8.94353 36.7279 7.27208C35.0565 5.60062 33.0722 4.27475 30.8883 3.37017C28.7044 2.46558 26.3638 2 24 2C21.6362 2 19.2956 2.46558 17.1117 3.37017C14.9278 4.27475 12.9435 5.60062 11.2721 7.27208C9.60062 8.94353 8.27475 10.9278 7.37017 13.1117C6.46558 15.2956 6 17.6362 6 20C6 27.274 10.436 33.752 14.524 38.224C16.2972 40.1554 18.2039 41.9578 20.23 43.622ZM24 26.5C22.2761 26.5 20.6228 25.8152 19.4038 24.5962C18.1848 23.3772 17.5 21.7239 17.5 20C17.5 18.2761 18.1848 16.6228 19.4038 15.4038C20.6228 14.1848 22.2761 13.5 24 13.5C25.7239 13.5 27.3772 14.1848 28.5962 15.4038C29.8152 16.6228 30.5 18.2761 30.5 20C30.5 21.7239 29.8152 23.3772 28.5962 24.5962C27.3772 25.8152 25.7239 26.5 24 26.5Z" fill="#999999"/>
</svg>
