<svg width="48" height="48" viewBox="0 0 48 48" fill="none" xmlns="http://www.w3.org/2000/svg">
<path d="M6.00004 16.5001C5.99982 14.7597 6.43221 13.0465 7.25832 11.5147C8.08443 9.98291 9.27835 8.68046 10.7327 7.72452C12.187 6.76857 13.8562 6.18913 15.59 6.03829C17.3239 5.88746 19.068 6.16996 20.6656 6.8604C22.2631 7.55084 23.664 8.62755 24.7422 9.9937C25.8205 11.3599 26.5422 12.9726 26.8425 14.6869C27.1428 16.4011 27.0123 18.1632 26.4628 19.8145C25.9132 21.4658 24.9617 22.9547 23.694 24.1471C26.0842 25.3075 28.1594 27.0269 29.7438 29.1597C31.3282 31.2924 32.3752 33.7757 32.796 36.3991C32.8423 36.691 32.8307 36.9892 32.7617 37.2766C32.6928 37.564 32.5679 37.8351 32.3942 38.0742C32.2205 38.3134 32.0014 38.516 31.7494 38.6705C31.4974 38.8249 31.2175 38.9283 30.9255 38.9746C30.6336 39.0209 30.3354 39.0092 30.048 38.9403C29.7606 38.8713 29.4896 38.7464 29.2504 38.5727C29.0112 38.399 28.8086 38.1799 28.6541 37.9279C28.4997 37.676 28.3963 37.396 28.35 37.1041C27.9001 34.285 26.4598 31.7187 24.2879 29.866C22.116 28.0132 19.3548 26.9955 16.5 26.9955C13.6453 26.9955 10.884 28.0132 8.71213 29.866C6.54024 31.7187 5.1 34.285 4.65004 37.1041C4.60355 37.396 4.50001 37.6759 4.34535 37.9278C4.19068 38.1797 3.98791 38.3987 3.74862 38.5723C3.50932 38.7458 3.23818 38.8706 2.95069 38.9393C2.66319 39.0081 2.36496 39.0196 2.07304 38.9731C1.78111 38.9266 1.50119 38.8231 1.24928 38.6684C0.99736 38.5137 0.778374 38.311 0.604821 38.0717C0.431268 37.8324 0.306548 37.5612 0.237781 37.2737C0.169014 36.9862 0.157547 36.688 0.204035 36.3961C0.623352 33.7729 1.66982 31.2898 3.25448 29.1578C4.83914 27.0257 6.91515 25.3078 9.30604 24.1501C8.26204 23.1681 7.43014 21.9828 6.86157 20.6671C6.293 19.3515 5.9998 17.9333 6.00004 16.5001ZM33 12.0001C34.7431 12.0013 36.4483 12.5085 37.9087 13.46C39.369 14.4116 40.5218 15.7666 41.227 17.3606C41.9322 18.9546 42.1595 20.7191 41.8814 22.4398C41.6032 24.1605 40.8315 25.7634 39.66 27.0541C41.4871 27.9592 43.1104 29.2273 44.4309 30.7809C45.7514 32.3345 46.7412 34.141 47.34 36.0901C47.459 36.4683 47.4757 36.8712 47.3885 37.258C47.3014 37.6448 47.1135 38.0016 46.8438 38.2922C46.5742 38.5829 46.2324 38.797 45.8533 38.9129C45.4742 39.0288 45.0711 39.0423 44.685 38.9521C44.2991 38.8628 43.9435 38.6732 43.6543 38.4024C43.3651 38.1317 43.1525 37.7893 43.038 37.4101C42.4996 35.6711 41.5195 34.1015 40.1935 32.8543C38.8674 31.6071 37.2407 30.725 35.472 30.2941C34.9808 30.1755 34.5437 29.8949 34.2313 29.4976C33.9189 29.1004 33.7494 28.6095 33.75 28.1041V27.0481C33.7498 26.6292 33.8664 26.2185 34.0869 25.8623C34.3074 25.5062 34.623 25.2186 34.998 25.0321C35.9075 24.5813 36.6379 23.8363 37.0706 22.9181C37.5032 21.9999 37.6127 20.9623 37.3813 19.974C37.1498 18.9857 36.591 18.1047 35.7957 17.474C35.0003 16.8434 34.0151 16.5001 33 16.5001C32.4033 16.5001 31.831 16.263 31.409 15.8411C30.9871 15.4191 30.75 14.8468 30.75 14.2501C30.75 13.6533 30.9871 13.081 31.409 12.6591C31.831 12.2371 32.4033 12.0001 33 12.0001ZM16.5 10.5001C15.701 10.482 14.9064 10.6238 14.163 10.917C13.4195 11.2102 12.7421 11.649 12.1705 12.2077C11.599 12.7663 11.1448 13.4335 10.8346 14.1701C10.5245 14.9067 10.3646 15.6978 10.3644 16.497C10.3642 17.2963 10.5237 18.0875 10.8335 18.8242C11.1432 19.5609 11.5971 20.2284 12.1684 20.7873C12.7396 21.3462 13.4168 21.7854 14.1602 22.079C14.9035 22.3726 15.698 22.5147 16.497 22.4971C18.0647 22.4624 19.5565 21.8154 20.6531 20.6946C21.7498 19.5737 22.364 18.0681 22.3644 16.5C22.3648 14.932 21.7513 13.4261 20.6552 12.3047C19.5592 11.1833 18.0677 10.5355 16.5 10.5001Z" fill="#999999"/>
</svg>
