<svg width="48" height="48" viewBox="0 0 48 48" fill="none" xmlns="http://www.w3.org/2000/svg">
<path d="M6.69346 43.1556H41.3057C45.4843 43.1556 47.6143 41.0659 47.6143 36.9276V15.8942C47.6143 11.7559 45.4843 9.68673 41.3057 9.68673H36.6052C35.0383 9.68673 34.5566 9.3653 33.6523 8.36073L32.0246 6.55216C31.0406 5.44816 30.0163 4.84473 27.9266 4.84473H19.9312C17.862 4.84473 16.8369 5.44816 15.8332 6.55216L14.2055 8.36073C13.3217 9.34473 12.8195 9.68673 11.2526 9.68673H6.69261C2.51403 9.68673 0.384033 11.7559 0.384033 15.8942V36.9276C0.384033 41.0659 2.51489 43.1556 6.69346 43.1556ZM23.9898 36.727C17.922 36.727 13.0406 31.8447 13.0406 25.7384C13.0406 19.6304 17.922 14.7499 23.9889 14.7499C30.096 14.7499 34.9577 19.6304 34.9577 25.7384C34.9577 31.8447 30.0763 36.727 23.9889 36.727M38.4326 20.8356C37.0663 20.8356 35.9417 19.7316 35.9417 18.3653C35.9417 17.7047 36.2042 17.0711 36.6713 16.604C37.1384 16.1369 37.772 15.8744 38.4326 15.8744C39.0932 15.8744 39.7268 16.1369 40.1939 16.604C40.661 17.0711 40.9235 17.7047 40.9235 18.3653C40.9235 19.7316 39.7989 20.8356 38.4326 20.8356ZM23.9898 33.6739C25.0322 33.6751 26.0646 33.4707 27.028 33.0723C27.9913 32.674 28.8666 32.0895 29.6037 31.3524C30.3408 30.6153 30.9253 29.74 31.3237 28.7767C31.722 27.8133 31.9264 26.7809 31.9252 25.7384C31.9263 24.6961 31.7218 23.6637 31.3234 22.7005C30.925 21.7372 30.3405 20.8621 29.6034 20.125C28.8663 19.388 27.9911 18.8036 27.0278 18.4053C26.0645 18.007 25.0321 17.8026 23.9898 17.8039C19.6097 17.8039 16.0749 21.3396 16.0749 25.7384C16.0749 30.1382 19.6303 33.6739 23.9898 33.6739Z" fill="#737373"/>
</svg>
