<svg width="100" height="100" viewBox="0 0 100 100" fill="none" xmlns="http://www.w3.org/2000/svg">
<path d="M48 1.1547C49.2376 0.44017 50.7624 0.440169 52 1.1547L91.3013 23.8453C92.5389 24.5598 93.3013 25.8803 93.3013 27.3094V72.6906C93.3013 74.1197 92.5389 75.4402 91.3013 76.1547L52 98.8453C50.7624 99.5598 49.2376 99.5598 48 98.8453L8.69873 76.1547C7.46113 75.4402 6.69873 74.1197 6.69873 72.6906V27.3094C6.69873 25.8803 7.46113 24.5598 8.69873 23.8453L48 1.1547Z" fill="#30C795"/>
<path d="M69.5 66H30.5C29.675 66 29 66.675 29 67.5V70.5C29 71.325 29.675 72 30.5 72H69.5C70.325 72 71 71.325 71 70.5V67.5C71 66.675 70.325 66 69.5 66ZM75.5 36C73.0156 36 71 38.0156 71 40.5C71 41.1656 71.15 41.7844 71.4125 42.3563L64.625 46.425C63.1813 47.2875 61.3156 46.8 60.4812 45.3375L52.8406 31.9688C53.8437 31.1437 54.5 29.9062 54.5 28.5C54.5 26.0156 52.4844 24 50 24C47.5156 24 45.5 26.0156 45.5 28.5C45.5 29.9062 46.1563 31.1437 47.1594 31.9688L39.5187 45.3375C38.6844 46.8 36.8094 47.2875 35.375 46.425L28.5969 42.3563C28.85 41.7938 29.0094 41.1656 29.0094 40.5C29.0094 38.0156 26.9937 36 24.5094 36C22.025 36 20 38.0156 20 40.5C20 42.9844 22.0156 45 24.5 45C24.7437 45 24.9875 44.9625 25.2219 44.925L32 63H68L74.7781 44.925C75.0125 44.9625 75.2563 45 75.5 45C77.9844 45 80 42.9844 80 40.5C80 38.0156 77.9844 36 75.5 36Z" fill="white"/>
</svg>
