<svg width="48" height="48" viewBox="0 0 48 48" fill="none" xmlns="http://www.w3.org/2000/svg">
<g clip-path="url(#clip0_199_90)">
<path d="M14.0602 0.168019C11.5062 0.288019 9.76219 0.696019 8.24019 1.29402C6.63962 1.90032 5.19011 2.84756 3.99219 4.07002C2.77478 5.27125 1.83303 6.72276 1.23219 8.32402C0.642189 9.85202 0.240189 11.6 0.128189 14.152C0.0161885 16.704 -0.00981145 17.528 0.00218855 24.046C0.0141885 30.564 0.0441885 31.38 0.168189 33.94C0.290189 36.494 0.696189 38.238 1.29419 39.762C1.91019 41.34 2.73419 42.676 4.07019 44.008C5.27258 45.2259 6.7255 46.1677 8.32819 46.768C9.85419 47.358 11.6002 47.76 14.1542 47.872C16.7102 47.984 17.5322 48.01 24.0482 47.998C30.5642 47.986 31.3842 47.956 33.9422 47.834C36.5022 47.714 38.2362 47.304 39.7622 46.708C41.362 46.1015 42.8108 45.1542 44.0082 43.932C45.2261 42.7296 46.1679 41.2767 46.7682 39.674C47.3582 38.148 47.7602 36.402 47.8702 33.85C47.9822 31.29 48.0102 30.47 47.9962 23.954C47.9842 17.438 47.9562 16.62 47.8342 14.06C47.7142 11.5 47.3062 9.76402 46.7062 8.23802C46.1002 6.63835 45.1537 5.18955 43.9322 3.99202C42.7304 2.77436 41.2782 1.83261 39.6762 1.23202C38.1482 0.644019 36.4042 0.240019 33.8482 0.132019C31.2942 0.0180191 30.4722 -0.0119809 23.9542 1.9083e-05C17.4362 0.0120191 16.6202 0.0420191 14.0602 0.168019ZM14.3402 43.554C12.0002 43.454 10.7302 43.064 9.88419 42.738C8.84011 42.3565 7.89538 41.7447 7.12019 40.948C6.32088 40.1761 5.70566 39.2342 5.32019 38.192C4.99019 37.346 4.59419 36.076 4.48619 33.736C4.36619 31.208 4.34219 30.448 4.32619 24.04C4.31419 17.632 4.33819 16.874 4.44819 14.344C4.54819 12.006 4.94019 10.734 5.26419 9.88802C5.69619 8.76602 6.21819 7.96802 7.05419 7.12402C7.82664 6.32446 8.76932 5.70923 9.81219 5.32402C10.6582 4.99402 11.9262 4.60202 14.2662 4.49002C16.7962 4.37002 17.5542 4.34602 23.9622 4.33002C30.3682 4.31802 31.1282 4.34202 33.6622 4.45402C35.9982 4.55402 37.2702 4.94202 38.1162 5.27002C39.2362 5.70202 40.0362 6.22002 40.8802 7.06002C41.7242 7.90002 42.2422 8.69402 42.6802 9.81602C43.0102 10.66 43.4042 11.928 43.5142 14.27C43.6342 16.8 43.6622 17.56 43.6742 23.966C43.6842 30.372 43.6622 31.132 43.5522 33.662C43.4502 36.002 43.0622 37.272 42.7362 38.122C42.3042 39.242 41.7822 40.042 40.9442 40.882C40.1723 41.6813 39.2303 42.2965 38.1882 42.682C37.3442 43.012 36.0722 43.406 33.7362 43.518C31.2042 43.638 30.4462 43.662 24.0362 43.676C17.6262 43.69 16.8722 43.662 14.3402 43.554ZM33.9062 11.172C33.907 11.7417 34.0767 12.2984 34.3939 12.7716C34.7111 13.2448 35.1615 13.6133 35.6882 13.8305C36.2149 14.0477 36.7941 14.1038 37.3527 13.9917C37.9113 13.8797 38.4241 13.6045 38.8262 13.2009C39.2283 12.7974 39.5017 12.2837 39.6119 11.7247C39.722 11.1658 39.6639 10.5867 39.4448 10.0608C39.2258 9.53489 38.8558 9.08575 38.3814 8.77019C37.9071 8.45463 37.3499 8.28683 36.7802 8.28802C36.0167 8.28961 35.2851 8.59429 34.7462 9.13509C34.2073 9.67588 33.9051 10.4085 33.9062 11.172ZM11.6782 24.024C11.6846 27.2923 12.989 30.4242 15.3045 32.7307C17.62 35.0372 20.7569 36.3294 24.0252 36.323C27.2935 36.3167 30.4253 35.0122 32.7318 32.6967C35.0383 30.3812 36.3306 27.2443 36.3242 23.976C36.2771 20.7347 34.9548 17.6425 32.6438 15.3693C30.3327 13.096 27.2191 11.8249 23.9775 11.8312C20.7358 11.8375 17.6272 13.1208 15.3251 15.403C13.0229 17.6852 11.7127 20.7825 11.6782 24.024ZM16.0002 24.016C15.997 22.4338 16.4631 20.8861 17.3395 19.5688C18.216 18.2514 19.4633 17.2236 20.9239 16.6151C22.3845 16.0067 23.9927 15.8451 25.5452 16.1506C27.0977 16.4562 28.5246 17.2153 29.6457 18.3319C30.7668 19.4485 31.5315 20.8724 31.8433 22.4236C32.1551 23.9748 31.9999 25.5837 31.3973 27.0467C30.7947 28.5097 29.7719 29.7612 28.458 30.6429C27.1442 31.5246 25.5984 31.9969 24.0162 32C22.9656 32.0021 21.9249 31.7973 20.9535 31.3972C19.9821 30.9971 19.099 30.4096 18.3546 29.6682C17.6103 28.9268 17.0192 28.0461 16.6153 27.0763C16.2113 26.1065 16.0023 25.0666 16.0002 24.016Z" fill="#212124"/>
</g>
<defs>
<clipPath id="clip0_199_90">
<rect width="48" height="48" fill="white"/>
</clipPath>
</defs>
</svg>
