<svg width="48" height="48" viewBox="0 0 48 48" fill="none" xmlns="http://www.w3.org/2000/svg">
<path d="M31.185 6.05437C29.3607 4.08469 26.8125 3 24 3C21.1725 3 18.616 4.07812 16.8 6.03562C14.9644 8.01469 14.07 10.7044 14.28 13.6087C14.6963 19.3387 19.0566 24 24 24C28.9435 24 33.2963 19.3397 33.7191 13.6106C33.9319 10.7325 33.0319 8.04844 31.185 6.05437ZM40.5 45H7.50005C7.06811 45.0056 6.64035 44.9149 6.24789 44.7344C5.85543 44.5539 5.50814 44.2882 5.2313 43.9566C4.62192 43.2281 4.3763 42.2334 4.55817 41.2275C5.34942 36.8381 7.8188 33.1509 11.7 30.5625C15.1482 28.2647 19.516 27 24 27C28.4841 27 32.8519 28.2656 36.3 30.5625C40.1813 33.15 42.6507 36.8372 43.4419 41.2266C43.6238 42.2325 43.3782 43.2272 42.7688 43.9556C42.492 44.2874 42.1448 44.5533 41.7523 44.734C41.3599 44.9146 40.9321 45.0055 40.5 45Z" fill="#999999"/>
</svg>
